<?xml version="1.0" encoding="utf-8"?>
<!-- Generator: Adobe Illustrator 25.3.1, SVG Export Plug-In . SVG Version: 6.00 Build 0)  -->
<svg version="1.1" id="Layer_1" xmlns="http://www.w3.org/2000/svg" xmlns:xlink="http://www.w3.org/1999/xlink" x="0px" y="0px"
	 viewBox="0 0 840 646.7" style="enable-background:new 0 0 840 646.7;" xml:space="preserve">
<style type="text/css">
	.st0{fill:#00A4DA;stroke:#1B243C;stroke-width:3.55;stroke-linecap:round;stroke-linejoin:round;}
	.st1{fill:none;stroke:#007CB4;stroke-width:3.55;stroke-linecap:round;stroke-linejoin:round;}
	.st2{fill:#049796;stroke:#1B243C;stroke-width:3.55;stroke-linecap:round;stroke-linejoin:round;}
	.st3{clip-path:url(#SVGID_2_);}
	.st4{fill:#F2F2F2;stroke:#D4DADB;stroke-width:3.55;stroke-linecap:round;stroke-linejoin:round;}
	.st5{fill:#DFE3E3;stroke:#D4DADB;stroke-width:3.55;stroke-linecap:round;stroke-linejoin:round;}
	.st6{fill:none;stroke:#D4DADB;stroke-width:3.55;stroke-linecap:round;stroke-linejoin:round;}
	.st7{fill:#F7F7F7;}
	.st8{fill:#DFE3E3;}
	.st9{fill:#D4DADB;}
	.st10{fill:#F2F2F2;}
	.st11{fill:#C27C4D;stroke:#1B243C;stroke-width:3.55;stroke-linecap:round;stroke-linejoin:round;}
	.st12{fill:#E6E6E6;stroke:#1B243C;stroke-width:3.55;stroke-linecap:round;stroke-linejoin:round;}
	.st13{fill:#FACDAA;stroke:#1B243C;stroke-width:3.55;stroke-linecap:round;stroke-linejoin:round;}
	.st14{clip-path:url(#SVGID_4_);}
	.st15{fill:#F4A06F;}
	.st16{fill:none;stroke:#1B243C;stroke-width:3.55;stroke-linecap:round;stroke-linejoin:round;}
	.st17{fill:#81CDBF;stroke:#1B243C;stroke-width:3.55;stroke-linecap:round;stroke-linejoin:round;}
	.st18{fill:#AAB7B8;stroke:#1B243C;stroke-width:3.55;stroke-linecap:round;stroke-linejoin:round;}
	.st19{fill:#E6E6E6;}
	.st20{fill:#D4DADB;stroke:#D4DADB;stroke-width:3.55;stroke-linecap:round;stroke-linejoin:round;}
	.st21{fill:none;stroke:#DFE3E3;stroke-width:3.55;stroke-miterlimit:10;}
	.st22{fill:#1B243C;stroke:#1B243C;stroke-width:3.55;stroke-linecap:round;stroke-linejoin:round;}
	.st23{fill:none;stroke:#F4A06F;stroke-width:3.55;stroke-linecap:round;stroke-linejoin:round;}
	.st24{opacity:0.31;fill:#231F20;enable-background:new    ;}
	.st25{fill:#CD7842;}
	.st26{fill:#FFFFFF;stroke:#19243E;stroke-width:3.55;stroke-linecap:round;stroke-linejoin:round;}
	.st27{fill:none;stroke:#19243E;stroke-width:3.55;stroke-linecap:round;stroke-linejoin:round;}
</style>
<g>
	<g id="Layer_1_1_">
		<path class="st0" d="M349.3,654.2V529.5l-54.7-6.8h-0.1c-1.9-0.3-3.9-0.3-5.9,0h-0.1l-54.7,6.8v124.7H349.3z"/>
		<line class="st1" x1="233.9" y1="629.6" x2="349.3" y2="629.6"/>
		<line class="st1" x1="233.9" y1="615.8" x2="349.3" y2="615.8"/>
		<line class="st1" x1="233.9" y1="602.1" x2="349.3" y2="602.1"/>
		<line class="st1" x1="233.9" y1="588.3" x2="349.3" y2="588.3"/>
		<path class="st2" d="M382.2,404.7H201l-34.7,249.5h250.5L382.2,404.7z M349.3,654.2H233.9V529.5l54.7-6.8h0.1
			c1.9-0.3,3.9-0.3,5.9,0h0.1l54.7,6.8L349.3,654.2z"/>
		<g>
			<g>
				<defs>
					<rect id="SVGID_1_" x="-113.2" y="48.5" width="1069.7" height="601.7"/>
				</defs>
				<clipPath id="SVGID_2_">
					<use xlink:href="#SVGID_1_"  style="overflow:visible;"/>
				</clipPath>
				<g class="st3">
					<rect x="458" y="305.2" class="st4" width="39.8" height="126.9"/>
					<rect x="458" y="432.1" class="st5" width="573.9" height="14.5"/>
					<path class="st5" d="M443.5,246.7v555.9h603V246.7H443.5z M458,261.2h574v523.2H458V261.2z"/>
					<line class="st6" x1="1032" y1="617.2" x2="458" y2="617.2"/>
					<rect x="715.8" y="295.9" class="st5" width="104.7" height="136.2"/>
					<rect x="728.2" y="308.3" class="st7" width="79.9" height="111.4"/>
					<path class="st8" d="M742.8,347.5c0-14,11.4-25.3,25.3-25.3c0.4,0,0.8,0,1.2,0c13.6,0.6,24.1,12.4,24.1,26v23.4
						c0,14-11.3,25.3-25.3,25.3l0,0c-14,0-25.3-11.3-25.3-25.3l0,0V347.5z"/>
					<path class="st9" d="M768.1,377.1c-17.7,0-32.1,14.4-32.1,32.1v10.5h64.2v-10.5C800.2,391.4,785.9,377.1,768.1,377.1z"/>
					<path class="st10" d="M757.8,379v-13.3c6.8,1.4,13.8,1.4,20.6,0V379l-10.3,9L757.8,379z"/>
					<rect x="497.8" y="288.8" class="st5" width="33.8" height="143.3"/>
					<rect x="531.6" y="316.6" class="st4" width="44.8" height="115.5"/>
					<ellipse class="st8" cx="554" cy="405.2" rx="10" ry="10.4"/>
					<rect x="576.4" y="395.4" class="st4" width="125.2" height="36.7"/>
					<rect x="576.4" y="371.2" class="st5" width="109.8" height="24.2"/>
					<line class="st6" x1="607.5" y1="371.2" x2="607.5" y2="432.1"/>
					<path class="st7" d="M786,354.4c0,12.7-8,23-17.8,23s-17.8-10.3-17.8-23v-9.6c0-6,4.9-10.8,10.8-10.8h13.9
						c6,0,10.9,4.8,10.9,10.8l0,0L786,354.4L786,354.4z"/>
					<path class="st8" d="M747.2,340.6c12.3,7.1,26.3,10.9,40.6,11.1c-0.1-3.5,0.1-4.3,0-7.9V339c0-6-4.8-10.9-10.8-10.9h-23.2"/>
				</g>
			</g>
		</g>
		<rect x="233.9" y="629.6" class="st11" width="115.4" height="24.6"/>
		<rect x="477.1" y="579.6" class="st11" width="300" height="74.6"/>
		<path class="st12" d="M865.7,579.6H-22.5c-19.3,0-35-15.7-35-35l0,0l0,0h958.2l0,0l0,0C900.8,564,885.1,579.6,865.7,579.6
			L865.7,579.6z"/>
		<polygon class="st11" points="59.3,660.9 71,579.6 32.8,579.6 23.6,660.9 		"/>
		<circle class="st13" cx="291.6" cy="392.5" r="26.9"/>
		<path class="st2" d="M484.9,492.4L484.9,492.4l-113-107.7l0,0c-5.2-4.8-11.7-7.9-18.8-8.7l0,0l-58.6-7.3h-0.1
			c-1.9-0.2-3.9-0.2-5.9,0h-0.1L230,376l0,0c-7,0.8-13.6,3.9-18.8,8.7l0,0l-113,107.7l0,0c-12.1,11.4-12.7,30.5-1.2,42.7
			c11.1,11.8,29.6,12.7,41.8,2l0,0l49.9-44.1l-7.2,51.6h220.1l-7.2-51.6l49.9,44.1l0,0c12.5,11,31.6,9.7,42.6-2.8
			C497.6,522,496.7,503.6,484.9,492.4L484.9,492.4z"/>
		<polyline class="st2" points="118.9,544.6 244.3,544.6 245.7,491.1 130.9,484.8 		"/>
		<polyline class="st2" points="464.3,544.6 338.9,544.6 337.5,491.1 452.3,484.8 		"/>
		<path class="st0" d="M233.9,544.6h115.4V375.5l-54.7-6.8h-0.1c-1.9-0.2-3.9-0.2-5.9,0h-0.1l-54.7,6.8L233.9,544.6z"/>
		<g>
			<g>
				<defs>
					<path id="SVGID_3_" d="M233.9,544.6h115.4V375.5l-54.7-6.8h-0.1c-1.9-0.2-3.9-0.2-5.9,0h-0.1l-54.7,6.8L233.9,544.6z"/>
				</defs>
				<clipPath id="SVGID_4_">
					<use xlink:href="#SVGID_3_"  style="overflow:visible;"/>
				</clipPath>
				<g class="st14">
					<line class="st1" x1="233.9" y1="433.7" x2="349.3" y2="433.7"/>
					<line class="st1" x1="233.9" y1="420" x2="349.3" y2="420"/>
					<line class="st1" x1="233.9" y1="406.2" x2="349.3" y2="406.2"/>
					<line class="st1" x1="233.9" y1="392.5" x2="349.3" y2="392.5"/>
				</g>
			</g>
		</g>
		<circle class="st13" cx="338.9" cy="517.8" r="26.8"/>
		<circle class="st13" cx="244.3" cy="517.8" r="26.8"/>
		<path class="st13" d="M264.7,320.4h53.8l0,0v50.9c0,14.9-12,26.9-26.9,26.9l0,0l0,0c-14.9,0-26.9-12-26.9-26.9l0,0V320.4
			L264.7,320.4z"/>
		<path class="st15" d="M264.7,351.9c7.4,7.5,16.8,12.1,26.9,12.1s19.5-4.5,26.9-12.1v-31.5h-53.8V351.9z"/>
		<path class="st16" d="M264.7,320.4h53.8l0,0v50.9c0,14.9-12,26.9-26.9,26.9l0,0l0,0c-14.9,0-26.9-12-26.9-26.9l0,0V320.4
			L264.7,320.4z"/>
		<polygon class="st17" points="264.7,371.2 233.8,490.4 233.8,375.5 264.7,353.5 		"/>
		<polygon class="st17" points="318.5,371.2 349.3,490.4 349.3,375.5 318.5,353.5 		"/>
		<path class="st18" d="M193.8,419.4h197.4c6.3,0,11.4,5.1,11.4,11.4v113.9l0,0H182.4l0,0v-114C182.4,424.5,187.5,419.4,193.8,419.4
			z"/>
		<line class="st16" x1="182.4" y1="531.7" x2="402.5" y2="531.7"/>
		<circle class="st19" cx="292.5" cy="482" r="15.5"/>
		<polygon class="st11" points="813.6,660.9 804.5,579.6 766.2,579.6 777.9,660.9 		"/>
		<path class="st20" d="M589.5,170c0.4-5.1-2.2-9.3-7.8-11.4c-3.5-1.3-9.8-0.4-12.9,3.2c-2,2.3-2.5,5.2-4.8,7.3
			c-1.6,1.5-3.7,2.1-5.2,3.7c-2.1,2.2-2.3,5.4-2.1,7.9s0.3,5.7-1.1,8.1c-1.1,1.9-3,2.9-3.7,5.2c-0.3,1.6-0.2,3.3,0.2,4.9
			c1.1,4.5,2.6,8.8,4.5,13l0.1,0.9l0.2-0.4c0.1,0.2,0.2,0.4,0.3,0.6l-0.1-1.1c1.3-3.4,3.1-6.5,5.2-9.4c0.9-1,1.5-2.1,1.8-3.4
			c0.4-2-0.6-4.1-0.3-6.2c0.5-2.6,2.8-4,4.9-4.8s4.5-1.6,5.7-3.6c0.9-1.4,1-3.2,2.2-4.5c1.7-1.9,4.6-1.7,6.9-2.5
			C586.6,176.3,588.9,173.4,589.5,170z"/>
		<path class="st20" d="M524,164.8c-0.8-5.8,1.5-10.4,7.3-12.3c3.5-1.2,10.3,0.4,13.8,4.7c2.3,2.8,3,6.1,5.6,8.6
			c1.8,1.8,4,2.7,5.7,4.6c2.4,2.7,2.8,6.3,2.9,9.2s0.2,6.5,1.8,9.3c1.3,2.3,3.4,3.5,4.3,6.2c0.5,1.8,0.5,3.7,0.1,5.5
			c-0.7,4.9-2,9.8-3.7,14.5c0,0.4,0,0.7,0,1l-0.2-0.5l-0.2,0.6c0-0.4,0-0.8,0-1.2c-1.6-3.9-3.7-7.7-6.2-11.1c-1-1.2-1.7-2.5-2.2-4
			c-0.5-2.3,0.3-4.6-0.2-7c-0.7-3-3.3-4.8-5.5-5.8s-4.8-2.2-6.2-4.6c-1-1.7-1.3-3.7-2.6-5.3c-1.9-2.2-4.9-2.3-7.4-3.4
			C527.5,172,524.9,168.7,524,164.8z"/>
		<path class="st5" d="M599.4,158c6.9-1,11.6,0.7,14.6,4.5s3.1,10.2-0.8,13.2c-2.8,2.2-6.7,2.1-10.3,2.4s-7.7,1.6-8.8,5.1
			c-1,2.9,0.6,6.6-1.5,9c-1.6,1.8-4.4,1.4-6.8,1.7c-14.5,1.3-16.7,12.8-16.7,12.8l-8.9,0.8C570.4,172.1,587.8,159.6,599.4,158z"/>
		<path class="st5" d="M512.8,161.4c-6.6-0.3-11,1.6-13.5,5.6s-2.1,10,1.9,12.5c2.9,1.9,6.6,1.4,10,1.4s7.5,0.9,8.8,4
			c1.2,2.7,0,6.4,2.2,8.4c1.7,1.6,4.3,1.1,6.6,1c16.5-1,18.2,11,18.2,11l8.3,1.4C546.5,174.1,524,162,512.8,161.4z"/>
		<path class="st5" d="M569.3,134.4c-6-5-12.6-4.9-18.2-1.2c-3.5,2.3-6.2,8.4-5,13.8c0.8,3.6,3.2,6.6,2.9,10.4
			c-0.2,2.7-1.6,4.8-2,7.4c-0.4,3.7,1.4,7,3.1,9.8s3.4,6.3,2.7,9.9c-0.6,2.9-2.6,4.9-2.8,7.8c0,1.9,0.4,3.9,1.3,5.6
			c2,4.9,4,9.8,6,14.7v1.1c0.1-0.2,0.2-0.3,0.3-0.5c0.1,0.2,0.2,0.4,0.3,0.6l0.1-1.3c2.3-4.6,4.6-9.1,6.9-13.7
			c1-1.6,1.5-3.5,1.7-5.4c0-3-1.9-5.3-2.3-8.2c-0.5-3.7,1.5-7,3.3-9.5s3.9-5.6,3.7-9.3c-0.2-2.7-1.5-5-1.5-7.7
			c0-3.8,2.5-6.4,3.6-9.9C575,143.6,572.7,137.2,569.3,134.4z"/>
		<path class="st4" d="M525.2,204.9l5,30c1.1,6.8,7,11.8,14,11.8h29.5c6.9,0,12.9-5,14-11.8l5-30H525.2z"/>
		<polygon class="st8" points="588.2,231.2 590.5,217.9 527.4,217.9 529.6,231.2 		"/>
		<path class="st6" d="M525.2,204.9l5,30c1.1,6.8,7,11.8,14,11.8h29.5c6.9,0,12.9-5,14-11.8l5-30H525.2z"/>
		<rect x="665.3" y="217.3" class="st5" width="143.3" height="26.7"/>
		<rect x="681.3" y="192.5" class="st4" width="111.3" height="24.8"/>
		<rect x="780.5" y="217.3" class="st10" width="12.1" height="26.7"/>
		<rect x="756.4" y="217.3" class="st10" width="12.1" height="26.7"/>
		<circle class="st10" cx="699" cy="230.6" r="7.3"/>
		<rect x="665.3" y="217.3" class="st6" width="143.3" height="26.7"/>
		
			<rect x="769.5" y="199.8" transform="matrix(0.7071 -0.7071 0.7071 0.7071 81.985 607.7501)" class="st8" width="10.2" height="10.2"/>
		<line class="st6" x1="756.4" y1="217.3" x2="756.4" y2="192.5"/>
		<line class="st21" x1="698.8" y1="204.9" x2="737" y2="204.9"/>
		<line class="st6" x1="646.4" y1="512" x2="690.8" y2="512"/>
		<circle class="st8" cx="118.6" cy="177.5" r="66.6"/>
		<circle class="st4" cx="118.6" cy="177.5" r="53.6"/>
		<polyline class="st6" points="118.6,140.1 118.6,177.5 102.1,199.5 		"/>
		<path class="st13" d="M247.9,282.1h87.4c6.8,0,12.3,5.5,12.3,12.3l0,0c0,6.8-5.5,12.3-12.3,12.3h-87.4c-6.8,0-12.3-5.5-12.3-12.3
			l0,0C235.6,287.6,241.1,282.1,247.9,282.1z"/>
		<path class="st22" d="M248.1,297.4L248.1,297.4c-4-4-6.3-9.5-6.3-15.1v-0.2l-8.4-8.4c-7.6-7.6-7.6-19.8,0-27.4l0,0l0,0v-5.8
			c0-6.7,5.4-12.1,12.1-12.1l0,0h8.4V222c0-15.6,18.9-23.4,29.9-12.4l3.6,3.6c4.1,4.1,10.3,5.3,15.6,2.9l7.1-3.1
			c14.2-6.3,30.8,0.1,37.2,14.3c1.6,3.6,2.4,7.5,2.4,11.4v7.6l0,0c7.6,7.6,7.6,19.9,0,27.4l-8.5,8.4v0.2c0,5.7-2.3,11.1-6.3,15.1
			l0,0"/>
		<path class="st13" d="M335,297.4c0,31-19.5,56.1-43.5,56.1S248,328.4,248,297.4v-34.9c0-14.6,11.9-26.5,26.5-26.5h33.9
			c14.6,0,26.5,11.9,26.5,26.5l0,0v34.9H335z"/>
		<path class="st16" d="M299.6,283.8c-4.4-4.4-11.6-4.4-16,0l0,0"/>
		<path class="st16" d="M322.6,276.6h-11.7c-6-0.1-11.2,4.2-12.2,10.1c-1.6,10,5.3,19.3,15.2,20.9c10,1.6,19.3-5.3,20.9-15.2
			c0.3-1.6,0.3-3.2,0.1-4.8C334.2,281.3,328.9,276.6,322.6,276.6z"/>
		<path class="st22" d="M248.1,262.6L248.1,262.6c0-8.8,7.1-16,15.9-16.1c2.6,0,5.2,0.6,7.6,1.9l9.8,5.1c15.9,8.3,34.8,8.7,51,1
			l10.5-5l0,0c0-12.8-10.4-23.1-23.1-23.1H278c-19.9,0-36.1,16.1-36.1,36.1v3.6L248.1,262.6z"/>
		<path class="st16" d="M272.2,276.6h-11.7c-6-0.1-11.2,4.2-12.2,10.1c-1.5,10,5.3,19.3,15.3,20.9c10,1.5,19.3-5.3,20.9-15.3
			c0.2-1.6,0.3-3.2,0.1-4.8C283.8,281.3,278.5,276.6,272.2,276.6z"/>
		<path class="st23" d="M285.7,307.8c3.3,3.2,8.5,3.2,11.8,0"/>
		<path class="st16" d="M283.6,327.8l0.9,0.4c4.8,2.3,10.4,2.1,15.1-0.4l0,0"/>
		<polygon class="st24" points="806.2,595.2 477.1,595.2 477.1,579.6 804.5,579.6 		"/>
		<polygon class="st24" points="174.5,595.2 408.6,595.2 406.5,579.6 176.7,579.6 		"/>
		<polygon class="st24" points="31,595.2 68.7,595.2 71,579.6 32.8,579.6 		"/>
		<rect x="621.1" y="534.7" class="st25" width="86.1" height="8.8"/>
		<path class="st26" d="M611.2,492.2v4.9c0,15.6,12.7,28.3,28.3,28.3h4.3v-33.2c0.2-9-6.9-16.5-15.9-16.7s-16.5,6.9-16.7,15.9
			C611.2,491.7,611.2,491.9,611.2,492.2L611.2,492.2z M619.9,492.2c0-4.2,3.4-7.6,7.7-7.6c4.2,0,7.6,3.4,7.6,7.6v24.1
			c-8.9-2.1-15.3-10-15.3-19.1V492.2z"/>
		<path class="st27" d="M650.7,445.6c-4.2,1-8.4-1.6-9.5-5.8c-1-4.2,1.6-8.4,5.8-9.5c1.2-0.3,2.5-0.3,3.8,0l17.4,4.4"/>
		<path class="st27" d="M655.7,411c-14.9-3.8-30.1,5.2-33.9,20.1c-2.7,10.7,1.1,22.1,9.9,28.9"/>
		<path class="st27" d="M682.7,466.6L682.7,466.6c0-8-6.5-14.5-14.5-14.5c-1.2,0-2.3,0.1-3.5,0.4l-11.6,2.9
			c-9.6,2.3-19.3-3.6-21.6-13.2c-0.3-1.4-0.5-2.8-0.5-4.2l0,0c0-9.9,8-17.9,17.9-17.9c1.5,0,3,0.2,4.4,0.6l17.4,4.4
			c8.3,2.1,16.7-2.9,18.8-11.2c0.3-1.2,0.5-2.5,0.5-3.8l0,0"/>
		<rect x="635.2" y="466.6" class="st26" width="58.1" height="68.1"/>
		<line class="st27" x1="621.2" y1="534.7" x2="707.3" y2="534.7"/>
	</g>
</g>
</svg>
