<svg id="Layer_1" data-name="Layer 1" xmlns="http://www.w3.org/2000/svg" viewBox="0 0 840 646.72"><defs><style>.cls-1{fill:#e6e6e6;}.cls-1,.cls-10,.cls-15,.cls-2,.cls-25,.cls-26,.cls-28,.cls-31,.cls-32,.cls-9{stroke:#1b243c;}.cls-1,.cls-10,.cls-13,.cls-15,.cls-17,.cls-18,.cls-2,.cls-20,.cls-24,.cls-25,.cls-26,.cls-27,.cls-28,.cls-3,.cls-30,.cls-31,.cls-32,.cls-33,.cls-4,.cls-5,.cls-6,.cls-9{stroke-linecap:round;stroke-linejoin:round;}.cls-1,.cls-13,.cls-14,.cls-17,.cls-18,.cls-20,.cls-21,.cls-27,.cls-3,.cls-30,.cls-4,.cls-5,.cls-6{stroke-width:3.55px;}.cls-2{fill:#915737;}.cls-10,.cls-15,.cls-2,.cls-25,.cls-26,.cls-28,.cls-31,.cls-32,.cls-9{stroke-width:3.55px;}.cls-3{fill:#839595;}.cls-3,.cls-4,.cls-5{stroke:#19243e;}.cls-4{fill:#a6b7b7;}.cls-5{fill:#009bde;}.cls-14,.cls-15,.cls-20,.cls-21,.cls-24,.cls-27,.cls-30,.cls-33,.cls-6{fill:none;}.cls-6{stroke:#a6b4b5;}.cls-7{fill:#a6b4b5;}.cls-8{fill:#859394;}.cls-12,.cls-9{fill:#80cbbd;}.cls-10,.cls-11{fill:#009190;}.cls-13,.cls-18,.cls-19,.cls-26{fill:#f1f1f1;}.cls-13,.cls-14{stroke:#80cbbd;}.cls-14,.cls-21{stroke-miterlimit:10;}.cls-16,.cls-32{fill:#1b243c;}.cls-17{fill:#dde2e2;}.cls-17,.cls-18,.cls-20{stroke:#d2d9da;}.cls-21{stroke:#dde2e2;}.cls-22{fill:#e7e9e9;}.cls-23{fill:#dfe4e4;}.cls-24{stroke:#fd6b6b;stroke-width:2.3px;}.cls-25{fill:#c07c4d;}.cls-27{stroke:#a6b7b7;}.cls-28,.cls-29{fill:#05a2d8;}.cls-30{stroke:#007eba;}.cls-31{fill:#ef9520;}.cls-33{stroke:#fff;stroke-width:1.78px;}</style></defs><rect class="cls-1" x="-11.49" y="598.98" width="944.35" height="29.87"/><polygon class="cls-2" points="456.23 598.98 469.41 598.98 514.29 464.23 492.75 464.23 456.23 598.98"/><path class="cls-2" d="M436.27,448.91H789.83a0,0,0,0,1,0,0v0a15.32,15.32,0,0,1-15.32,15.32H451.59a15.32,15.32,0,0,1-15.32-15.32v0a0,0,0,0,1,0,0Z"/><polygon class="cls-2" points="769.88 598.98 756.7 598.98 711.82 464.23 733.35 464.23 769.88 598.98"/><path class="cls-3" d="M546.56,442.25a27.52,27.52,0,1,0-39.56,0Z"/><ellipse class="cls-4" cx="526.78" cy="415.53" rx="26.45" ry="19.92"/><rect class="cls-5" x="507" y="442.25" width="39.56" height="6.66"/><line class="cls-6" x1="499.2" y1="356.44" x2="499.2" y2="364.24"/><line class="cls-6" x1="508.44" y1="370.35" x2="508.44" y2="350.33"/><line class="cls-6" x1="517.69" y1="376.6" x2="517.69" y2="344.08"/><line class="cls-6" x1="471.47" y1="370.35" x2="471.47" y2="350.33"/><line class="cls-6" x1="489.96" y1="370.35" x2="489.96" y2="350.33"/><line class="cls-6" x1="480.71" y1="375.64" x2="480.71" y2="345.04"/><circle class="cls-7" cx="460.78" cy="360.34" r="1.6"/><line class="cls-6" x1="526.93" y1="367.85" x2="526.93" y2="352.84"/><circle class="cls-7" cx="526.93" cy="344.43" r="1.6"/><circle class="cls-7" cx="526.93" cy="376.26" r="1.6"/><line class="cls-6" x1="554.66" y1="364.24" x2="554.66" y2="356.44"/><line class="cls-6" x1="545.42" y1="350.33" x2="545.42" y2="370.35"/><line class="cls-6" x1="536.18" y1="344.08" x2="536.18" y2="376.6"/><line class="cls-6" x1="582.4" y1="350.33" x2="582.4" y2="370.35"/><line class="cls-6" x1="563.91" y1="350.33" x2="563.91" y2="370.35"/><line class="cls-6" x1="573.15" y1="342.15" x2="573.15" y2="378.53"/><circle class="cls-7" cx="593.09" cy="360.34" r="1.6"/><circle class="cls-8" cx="526.93" cy="430.3" r="1.12"/><circle class="cls-8" cx="532.25" cy="430.3" r="1.12"/><circle class="cls-8" cx="521.61" cy="430.3" r="1.12"/><circle class="cls-8" cx="526.93" cy="415.17" r="1.12"/><circle class="cls-8" cx="532.25" cy="415.17" r="1.12"/><circle class="cls-8" cx="542.89" cy="415.17" r="1.12"/><circle class="cls-8" cx="542.89" cy="410.13" r="1.12"/><circle class="cls-8" cx="537.57" cy="415.17" r="1.12"/><circle class="cls-8" cx="547.94" cy="415.17" r="1.12"/><circle class="cls-8" cx="537.57" cy="410.13" r="1.12"/><circle class="cls-8" cx="537.57" cy="405.09" r="1.12"/><circle class="cls-8" cx="521.61" cy="415.17" r="1.12"/><circle class="cls-8" cx="526.93" cy="410.13" r="1.12"/><circle class="cls-8" cx="526.93" cy="405.09" r="1.12"/><circle class="cls-8" cx="526.93" cy="400.05" r="1.12"/><circle class="cls-8" cx="532.25" cy="400.05" r="1.12"/><circle class="cls-8" cx="521.61" cy="400.05" r="1.12"/><circle class="cls-8" cx="532.25" cy="410.13" r="1.12"/><circle class="cls-8" cx="521.61" cy="410.13" r="1.12"/><circle class="cls-8" cx="526.93" cy="420.21" r="1.12"/><circle class="cls-8" cx="532.25" cy="420.21" r="1.12"/><circle class="cls-8" cx="542.89" cy="420.21" r="1.12"/><circle class="cls-8" cx="537.57" cy="420.21" r="1.12"/><circle class="cls-8" cx="521.61" cy="420.21" r="1.12"/><circle class="cls-8" cx="526.93" cy="425.26" r="1.12"/><circle class="cls-8" cx="532.25" cy="425.26" r="1.12"/><circle class="cls-8" cx="537.57" cy="425.26" r="1.12"/><circle class="cls-8" cx="521.61" cy="425.26" r="1.12"/><circle class="cls-8" cx="516.29" cy="415.17" r="1.12"/><circle class="cls-8" cx="510.97" cy="415.17" r="1.12"/><circle class="cls-8" cx="505.65" cy="415.17" r="1.12"/><circle class="cls-8" cx="516.29" cy="410.13" r="1.12"/><circle class="cls-8" cx="516.29" cy="405.09" r="1.12"/><circle class="cls-8" cx="516.29" cy="420.21" r="1.12"/><circle class="cls-8" cx="516.29" cy="425.26" r="1.12"/><circle class="cls-8" cx="510.97" cy="410.13" r="1.12"/><circle class="cls-8" cx="510.97" cy="420.21" r="1.12"/><circle class="cls-8" cx="532.25" cy="405.09" r="1.12"/><circle class="cls-8" cx="521.61" cy="405.09" r="1.12"/><rect class="cls-9" x="676.09" y="395.59" width="16.77" height="89.86" transform="translate(1124.99 -243.95) rotate(90)"/><rect class="cls-10" x="676.71" y="389.48" width="15.53" height="69.8" transform="translate(1108.85 -260.09) rotate(90)"/><rect class="cls-11" x="711.79" y="432.14" width="7.58" height="16.77"/><rect class="cls-11" x="696.63" y="432.14" width="7.58" height="16.77"/><circle class="cls-11" cx="660.65" cy="440.52" r="4.57"/><rect class="cls-12" x="704.88" y="421.19" width="6.38" height="6.38" transform="translate(507.47 -376.38) rotate(45)"/><line class="cls-13" x1="696.63" y1="432.14" x2="696.63" y2="416.62"/><line class="cls-14" x1="660.54" y1="424.38" x2="684.47" y2="424.38"/><line class="cls-15" x1="487.06" y1="546.19" x2="738.27" y2="546.19"/><polygon class="cls-16" points="511.67 472.09 514.29 464.23 492.75 464.23 490.62 472.09 511.67 472.09"/><polygon class="cls-16" points="735.48 472.09 733.35 464.23 711.82 464.23 714.43 472.09 735.48 472.09"/><rect class="cls-17" x="586.59" y="264.06" width="250.47" height="9.76"/><rect class="cls-17" x="586.59" y="180.33" width="250.47" height="9.76"/><line class="cls-17" x1="601.24" y1="271.32" x2="601.24" y2="112.92"/><line class="cls-17" x1="822.41" y1="271.32" x2="822.41" y2="112.92"/><polygon class="cls-17" points="793.28 227.84 785.56 227.84 777.85 227.84 764.69 241 785.56 241 806.44 241 793.28 227.84"/><polygon class="cls-18" points="785.56 241 764.69 241 774.39 264.06 785.56 264.06 796.74 264.06 806.44 241 785.56 241"/><rect class="cls-17" x="660.85" y="210.75" width="16.77" height="89.86" transform="translate(924.92 -413.56) rotate(90)"/><rect class="cls-18" x="660.9" y="204.06" width="16.68" height="69.8" transform="translate(908.2 -430.28) rotate(90)"/><rect class="cls-19" x="696.56" y="247.3" width="7.58" height="16.77"/><rect class="cls-19" x="681.4" y="247.3" width="7.58" height="16.77"/><rect class="cls-20" x="660.85" y="210.75" width="16.77" height="89.86" transform="translate(924.92 -413.56) rotate(90)"/><line class="cls-21" x1="645.31" y1="238.96" x2="693.55" y2="238.96"/><rect class="cls-19" x="337.73" y="80.54" width="160.91" height="225.66" transform="translate(611.56 -224.82) rotate(90)"/><path class="cls-22" d="M317.06,190.79v71.34H478.72C449.16,219.84,387.87,190.79,317.06,190.79Z"/><path class="cls-23" d="M519.31,190.79v71.34H357.66C387.22,219.84,448.5,190.79,519.31,190.79Z"/><rect class="cls-21" x="317.06" y="124.62" width="202.26" height="137.51"/><rect class="cls-19" x="179.36" y="112.92" width="101.51" height="122.88"/><rect class="cls-21" x="180.37" y="135.52" width="99.48" height="77.68" transform="translate(55.75 404.47) rotate(-90)"/><circle class="cls-22" cx="230.11" cy="174.36" r="23.88"/><path class="cls-17" d="M663.2,143.07a43.85,43.85,0,0,1,14.45-22.81,35.73,35.73,0,0,1,23.83-8,59.28,59.28,0,0,0-26,33.15C671.21,145.9,667.26,144.56,663.2,143.07Z"/><path class="cls-17" d="M673.32,143.61c-.06-17.09,3.18-37.54,9.69-53.34-12.67,10.13-21.9,36.48-20.12,52.6Z"/><path class="cls-17" d="M669.72,105.62A35.21,35.21,0,0,0,655.6,89.15a80.76,80.76,0,0,1,8.24,37.72l8,.88A37.06,37.06,0,0,0,669.72,105.62Z"/><path class="cls-17" d="M662.89,142.87c-5.08-6-10.21-12-16.34-16.88s-13.41-8.65-21.21-9.41a58,58,0,0,1,38.18,12.91c5.18,4.22,9.93,10.4,8.71,17"/><path class="cls-17" d="M662.19,140.08c0-17.38-14-35.1-27.63-44.34,12.11,4.77,21.07,11.25,29.9,20.81,5.25,5.67,8.89,15,8.89,23.53Z"/><path class="cls-18" d="M656.49,174.36h25.43a16.23,16.23,0,0,0,6.26-12.81V140.08H650.23v21.47A16.23,16.23,0,0,0,656.49,174.36Z"/><rect class="cls-18" x="656.51" y="174.36" width="25.39" height="5.97"/><rect class="cls-15" x="676.09" y="395.59" width="16.77" height="89.86" transform="translate(1124.99 -243.95) rotate(90)"/><rect class="cls-15" x="676.71" y="389.48" width="15.53" height="69.8" transform="translate(1108.85 -260.09) rotate(90)"/><circle class="cls-24" cx="283.53" cy="412.6" r="27"/><polyline class="cls-25" points="259.72 425.34 337.75 563.31 337.75 574.27 364.96 595.83 371.61 580.54 309 403.59"/><path class="cls-26" d="M406.89,599v-3.14a9.74,9.74,0,0,0-6.13-9.05L369.4,574.24l-.23.39a13.25,13.25,0,0,1-16.34,5.63l-15.08-6v25.1Z"/><line class="cls-27" x1="337.75" y1="593.52" x2="406.24" y2="593.13"/><path class="cls-28" d="M289.25,439,170.36,463.56A53.4,53.4,0,0,1,108.22,426L96.66,385.59H283.53Z"/><path class="cls-29" d="M309,403.59h0a27,27,0,0,0-51.64,15.61h0a26.45,26.45,0,0,0,1.44,4.21l47.89,139.9h58.83Z"/><path class="cls-15" d="M262.05,432.94l44.63,130.37h58.83L309,403.59h0a27,27,0,0,0-25.46-18"/><polyline class="cls-25" points="281.32 370.85 356.23 508.82 359.72 519.8 379.74 530.58 385.6 519.87 387.11 508.82 330.6 349.1"/><path class="cls-28" d="M331.63,352a27.24,27.24,0,1,0-51.95,16.05h0l48.61,140.75h58.83Z"/><polyline class="cls-28" points="294.06 333.47 185.42 385.59 283.8 385.59"/><path class="cls-30" d="M249.14,372.23c13-7.27,36.37-17.32,48.1-22.24a5,5,0,0,1,6.86,4.83l0,.54a4.93,4.93,0,0,0,5.48,5.12,7.58,7.58,0,0,1,3.17.38,4.7,4.7,0,0,1,3.15,3.65c.38,2.59-1.79,3.84-2.92,5.69-1.8,2.95-.68,6.74.48,10l39.89,111.74"/><path class="cls-31" d="M127.91,442.81,79.14,313.47a28.72,28.72,0,0,0-36.75-16.83l-15.31,5.61,67.45,184H280.3L277.43,456a29.22,29.22,0,0,0-32.34-26.28Z"/><polygon class="cls-2" points="228.93 402.27 212.99 402.27 266.31 598.98 282.25 598.98 228.93 402.27"/><polygon class="cls-2" points="139.11 402.27 155.04 402.27 101.73 598.98 85.79 598.98 139.11 402.27"/><polygon class="cls-16" points="212.99 403.94 216.4 416.52 231.9 414.89 228.93 403.94 212.99 403.94"/><polygon class="cls-16" points="138.57 405.94 133.33 425.25 149.74 423.52 154.97 404.21 138.57 405.94"/><path class="cls-32" d="M118.66,210.27c0-4.08,3.92-7.53,8-7.53s6.76,3.45,6.76,7.53a7.38,7.38,0,1,1-14.76,0Z"/><polygon class="cls-25" points="126.04 280.76 126.04 280.76 126.04 280.76 126.04 280.76"/><path class="cls-25" d="M114.57,257.86h0a8.82,8.82,0,0,0,8.78-7.8l.73-5.18,3.17-.7a2.82,2.82,0,0,0,1.78-4.27l0-.06c-2.72-4.31-4.29-10.9-4.58-16a24,24,0,0,0-24.68-24c-12.89.33-23.42,11.69-23.42,24.58v6.38a29,29,0,0,0,4.25,15.12L86.1,255c3.45,5.65,1,2.5-2.56,8.08l4,6.5-8.4,25.71,28.91,18.15s10.82-37.52,18-32.66l-15.29-10.41A6.83,6.83,0,0,1,114.57,257.86Z"/><path class="cls-10" d="M78,310.05c.06.38.12.77.17,1.16.36.73.68,1.48,1,2.26l27,71.68.18.44H164.1l-15.7-63.78a16,16,0,0,0-1-24.71s-19.23-14.91-21-16l-.41-.31h0l0,0a35.78,35.78,0,0,0-18.86-5.35,29.68,29.68,0,0,0-22.62,10.45,29.31,29.31,0,0,0-6.63,23.67Z"/><path class="cls-25" d="M105.21,339.4c0,.17,0,.33,0,.49.65.05,1.32.08,2,.08a28.62,28.62,0,0,0,0-57.23,22.1,22.1,0,0,0-21.91,25.5l0,.15a27.94,27.94,0,0,0,3.75,9.19l13.32,21Z"/><circle class="cls-32" cx="76.32" cy="190.79" r="9.02"/><path class="cls-25" d="M92.17,322.43l43.14,68.13h0a15.5,15.5,0,0,0,27.53-14.08h0l0-.09c-.21-.47-.43-.93-.68-1.37l-32.67-66"/><path class="cls-25" d="M150.86,397.86,262.75,386.1l16.79,17,5.91-4.44a6.51,6.51,0,0,0,2.25-7.34l-5.51-15.95a11.74,11.74,0,0,0-14.3-7.47l-16.26,4.58-94-4.9"/><path class="cls-2" d="M278.81,395.34A10.76,10.76,0,0,0,267,385.65L65.42,406.84,72,424.9l207.5-21.81Z"/><path class="cls-15" d="M406.89,599v-3.14a9.74,9.74,0,0,0-6.13-9.05L369.4,574.24l-.23.39a13.25,13.25,0,0,1-16.34,5.63l-15.08-6v25.1Z"/><path class="cls-26" d="M430.13,515.37a9.76,9.76,0,0,0-9.21-6.55H387.48a13.28,13.28,0,0,1-13.08,11.05H359.74l7.47,23.47,64.08-24.63Z"/><line class="cls-27" x1="365.51" y1="537.7" x2="429.09" y2="513.26"/><path class="cls-32" d="M90.51,217.73H97a68.44,68.44,0,0,0,29.28-6.57h0a28.64,28.64,0,0,0-25.91-16.5h-.86c-23.2,0-32.22,18.59-34.6,48.06-.81,10-4.66,20.52-12.47,26.83H87.56l10.89-32.27A16.19,16.19,0,0,0,90.51,217.73Z"/><path class="cls-33" d="M101.27,241.75a7.15,7.15,0,1,1-9.46,3.59"/><path class="cls-30" d="M327,550.81c-10.94-29.84-47.1-135.35-47.1-135.35"/><path class="cls-15" d="M430.13,515.37a9.76,9.76,0,0,0-9.21-6.55H387.48a13.28,13.28,0,0,1-13.08,11.05H359.74l7.47,23.47,64.08-24.63Z"/><polygon class="cls-26" points="239.46 388.55 239.46 388.55 251.63 387.27 251.63 372.47 239.46 371.84 239.46 388.55"/></svg>