<svg xmlns="http://www.w3.org/2000/svg" viewBox="0 0 840 646.72"><defs><style>.cls-1{isolation:isolate;}.cls-13,.cls-14,.cls-15,.cls-2,.cls-22,.cls-23,.cls-24,.cls-28,.cls-31,.cls-32,.cls-35,.cls-6{fill:none;}.cls-3,.cls-5{fill:#dfe3e3;}.cls-24,.cls-3,.cls-4{stroke:#d4dadb;}.cls-10,.cls-11,.cls-13,.cls-14,.cls-15,.cls-16,.cls-19,.cls-20,.cls-22,.cls-23,.cls-24,.cls-3,.cls-31,.cls-32,.cls-35,.cls-4,.cls-6,.cls-7,.cls-8,.cls-9{stroke-linecap:round;}.cls-10,.cls-11,.cls-13,.cls-14,.cls-15,.cls-16,.cls-19,.cls-20,.cls-22,.cls-23,.cls-24,.cls-28,.cls-3,.cls-31,.cls-32,.cls-4,.cls-6,.cls-7,.cls-8,.cls-9{stroke-linejoin:round;}.cls-10,.cls-11,.cls-14,.cls-15,.cls-16,.cls-19,.cls-20,.cls-23,.cls-24,.cls-3,.cls-4,.cls-6,.cls-7,.cls-8,.cls-9{stroke-width:3.55px;}.cls-4{fill:#f2f2f2;}.cls-6{stroke:#f2f2f2;}.cls-7{fill:#19243e;}.cls-10,.cls-11,.cls-14,.cls-16,.cls-7,.cls-9{stroke:#19243e;}.cls-8{fill:#e3661b;}.cls-19,.cls-20,.cls-8{stroke:#1b243c;}.cls-9{fill:#c27c4b;}.cls-10{fill:#00a5de;}.cls-11{fill:#ffcaa4;}.cls-12{fill:#97522d;}.cls-13{stroke:#ffc962;}.cls-13,.cls-22{stroke-width:2.37px;}.cls-15{stroke:#652920;}.cls-16,.cls-18{fill:#a6b6b7;}.cls-17{fill:#e5e5e5;}.cls-18,.cls-21{mix-blend-mode:multiply;}.cls-19{fill:#c27c4d;}.cls-20{fill:#e6e6e6;}.cls-21{fill:#aab7b8;}.cls-22,.cls-32{stroke:#fff;}.cls-23{stroke:#dfe3e3;}.cls-25{fill:#fff;}.cls-26{fill:#a9b6b7;}.cls-27{fill:#6d787a;}.cls-28,.cls-31{stroke:#232f3e;}.cls-28,.cls-31,.cls-32,.cls-35{stroke-width:3.68px;}.cls-29{fill:#f1b67b;}.cls-29,.cls-31,.cls-32,.cls-36{fill-rule:evenodd;}.cls-30,.cls-36{fill:#f7981d;}.cls-33{fill:#e9eceb;}.cls-34{fill:#d4dada;}.cls-35{stroke:#e9eceb;stroke-miterlimit:10;}</style></defs><g class="cls-1"><g id="Layer_1" data-name="Layer 1"><rect class="cls-2" x="480.71" y="344.83" width="425.81" height="256.01"/><polygon class="cls-3" points="480.71 344.83 906.52 344.83 906.52 330.29 466.17 330.29 466.17 600.84 480.71 600.84 480.71 344.83"/><rect class="cls-3" x="520.49" y="372.4" width="33.8" height="143.32"/><rect class="cls-4" x="520.49" y="488.82" width="33.8" height="13.45"/><rect class="cls-4" x="554.29" y="400.22" width="44.78" height="115.5"/><ellipse class="cls-5" cx="576.68" cy="488.82" rx="9.96" ry="10.37"/><rect class="cls-4" x="480.71" y="388.85" width="39.78" height="126.86"/><rect class="cls-3" x="480.71" y="515.72" width="425.81" height="14.54"/><circle class="cls-3" cx="734.96" cy="439.28" r="21.64"/><circle class="cls-3" cx="778.24" cy="439.28" r="21.64"/><circle class="cls-3" cx="691.68" cy="439.28" r="21.64"/><path class="cls-4" d="M811.43,439.29a76.47,76.47,0,0,1-152.93,0Z"/><line class="cls-3" x1="806.98" y1="465.03" x2="662.86" y2="465.03"/><line class="cls-6" x1="537.39" y1="469.2" x2="537.39" y2="396.97"/><rect class="cls-3" x="39.2" y="68.1" width="107.17" height="107.17"/><rect class="cls-4" x="39.2" y="68.1" width="107.17" height="107.17" transform="translate(113.22 -29.97) rotate(45)"/><circle class="cls-7" cx="200.48" cy="229.97" r="23.31"/><circle class="cls-7" cx="200.48" cy="229.97" r="23.31"/><path class="cls-8" d="M192.85,252a23.31,23.31,0,0,0,29.37-30.44A50.38,50.38,0,0,0,192.85,252Z"/><circle class="cls-7" cx="280.1" cy="229.97" r="23.31"/><rect class="cls-9" x="184.22" y="275.03" width="112.09" height="24.65" rx="12.33"/><path class="cls-10" d="M369,643.22c-13.12-33.45-48.74-125.08-63.77-172.28H177.09c-15,47.2-50.65,138.83-63.77,172.28Z"/><path class="cls-9" d="M61.08,481.37l0,0,98.81-107.78,1.21,100-59.37,52.48,0,0a30.19,30.19,0,0,1-40.61-44.67Z"/><polyline class="cls-9" points="81.76 533.59 207.2 533.59 208.62 487.14 93.76 480.88"/><circle class="cls-11" cx="287.59" cy="506.78" r="26.81"/><circle class="cls-11" cx="192.95" cy="506.78" r="26.81"/><path class="cls-9" d="M419.45,481.37l0,0-98.8-107.78h0a33,33,0,0,0-18.76-8.71h0l-13.35-1.67L279,362a13.44,13.44,0,0,1-11.77-13.34c0-15.15,0-39.43,0-39.43H213.35v39.42A13.44,13.44,0,0,1,201.58,362l-9.58,1.2-13.35,1.67h0a33,33,0,0,0-18.76,8.71h0L136,483.18l1.38-1.21-7.17,51.62h220.2l-5.18-37.26,33.63,29.73,0,0a30.19,30.19,0,0,0,40.61-44.67Z"/><polyline class="cls-9" points="398.78 533.59 273.34 533.59 271.92 487.14 386.78 480.88"/><path class="cls-12" d="M213.35,340.77c7.4,7.54,16.75,12.06,26.92,12.06s19.52-4.52,26.92-12.06V309.22H213.35Z"/><path class="cls-13" d="M279,362l-10.58,5.86a58,58,0,0,1-56.2,0L201.58,362"/><path class="cls-14" d="M320.67,373.56h0a33,33,0,0,0-18.76-8.71h0l-13.35-1.67L279,362a13.44,13.44,0,0,1-11.77-13.34c0-15.15,0-39.43,0-39.43H213.35v39.42A13.44,13.44,0,0,1,201.58,362l-9.58,1.2-13.35,1.67h0a33,33,0,0,0-18.76,8.71h0L136,483.18l1.38-1.21-7.17,51.62h220.2L343.19,482l1.38,1.21"/><path class="cls-11" d="M283.76,286.28c0,31-19.47,56.09-43.49,56.09s-43.49-25.11-43.49-56.09V268.36a43.49,43.49,0,0,1,43.49-43.49h0a43.49,43.49,0,0,1,43.49,43.49Z"/><path class="cls-8" d="M287.7,252a50.43,50.43,0,0,0-29.35-30.44A23.32,23.32,0,0,0,287.7,252Z"/><path class="cls-9" d="M283.76,286.28c0,31-19.47,56.09-43.49,56.09s-43.49-25.11-43.49-56.09V268.36a43.49,43.49,0,0,1,43.49-43.49h0a43.49,43.49,0,0,1,43.49,43.49Z"/><line class="cls-15" x1="237.52" y1="293.37" x2="246.17" y2="293.37"/><path class="cls-10" d="M178.64,364.86a33,33,0,0,0-18.76,8.71h0L63,479.21l145.6,7.93h63.3l145.6-7.93-83.31-90.87L243.7,398.43a35,35,0,0,1-36.43-22L201.58,362l-22.93,2.87Z"/><path class="cls-14" d="M194.56,373.81l2.52,6.42a44.26,44.26,0,0,0,41.43,28.25"/><path class="cls-16" d="M141.52,408.48H339a11.35,11.35,0,0,1,11.35,11.35V533.59a0,0,0,0,1,0,0H130.17a0,0,0,0,1,0,0V419.83A11.35,11.35,0,0,1,141.52,408.48Z"/><line class="cls-16" x1="130.17" y1="520.61" x2="350.37" y2="520.61"/><circle class="cls-17" cx="240.27" cy="470.94" r="15.53"/><polygon class="cls-18" points="135.59 584.21 346.7 584.21 340.56 568.6 141.73 568.6 135.59 584.21"/><path class="cls-14" d="M226.87,311.68c2.84,3.72,9.61,3.72,9.61,3.72"/><rect class="cls-19" x="427.17" y="568.61" width="300.01" height="74.56"/><path class="cls-20" d="M-72.43,533.59H815.79a35,35,0,0,1,35,35v0a0,0,0,0,1,0,0H-107.45a0,0,0,0,1,0,0v0A35,35,0,0,1-72.43,533.59Z" transform="translate(743.36 1102.2) rotate(-180)"/><polygon class="cls-19" points="9.35 649.86 21.05 568.61 -17.16 568.61 -26.29 649.86 9.35 649.86"/><polygon class="cls-19" points="763.63 649.86 754.51 568.61 716.3 568.61 728 649.86 763.63 649.86"/><polygon class="cls-21" points="756.26 584.21 427.17 584.21 427.17 568.61 754.51 568.61 756.26 584.21"/><polygon class="cls-21" points="-18.91 584.21 18.8 584.21 21.05 568.61 -17.16 568.61 -18.91 584.21"/><path class="cls-7" d="M241.84,224.91v.21a7,7,0,0,0,5.7,6.83,36.58,36.58,0,0,1,29.27,35.8v.65a6.63,6.63,0,0,0,6.63,6.63h.32v-6.67A43.49,43.49,0,0,0,241.84,224.91Z"/><path class="cls-7" d="M196.78,268.36V275h.37a6.63,6.63,0,0,0,6.58-6.7,37.65,37.65,0,0,1,28.4-36.15,6.89,6.89,0,0,0,5.22-6.73V225A43.48,43.48,0,0,0,196.78,268.36Z"/><line class="cls-13" x1="191.36" y1="282.78" x2="191.36" y2="282.78"/><line class="cls-13" x1="289.48" y1="282.78" x2="289.48" y2="282.78"/><line class="cls-22" x1="189.21" y1="287.79" x2="189.21" y2="287.79"/><line class="cls-23" x1="92.79" y1="121.69" x2="127.02" y2="131.93"/><polyline class="cls-24" points="92.79 78.27 92.79 121.69 76.31 143.69"/><circle class="cls-3" cx="92.79" cy="121.69" r="4.48"/><path class="cls-25" d="M407.07,297H736.25a3.93,3.93,0,0,0,3.94-3.93V96.5a3.93,3.93,0,0,0-3.94-3.93H407.07a3.93,3.93,0,0,0-3.93,3.93V293.1A3.93,3.93,0,0,0,407.07,297Z"/><path class="cls-26" d="M406.82,92.57H736.51a3.68,3.68,0,0,1,3.68,3.68v19.27a0,0,0,0,1,0,0h-337a0,0,0,0,1,0,0V96.24A3.68,3.68,0,0,1,406.82,92.57Z"/><circle class="cls-27" cx="415.55" cy="104.04" r="3.05"/><circle class="cls-27" cx="438.33" cy="104.04" r="3.05"/><circle class="cls-27" cx="426.94" cy="104.04" r="3.05"/><path class="cls-28" d="M407.07,297H736.25a3.93,3.93,0,0,0,3.94-3.93V96.5a3.93,3.93,0,0,0-3.94-3.93H407.07a3.93,3.93,0,0,0-3.93,3.93V293.1A3.93,3.93,0,0,0,407.07,297Z"/><path class="cls-29" d="M768.56,76.8l-28.37-18v0l-28.38,18c0,15.6,4.64,37.15,28.38,49.65C763.93,114,768.56,92.4,768.56,76.8Z"/><path class="cls-30" d="M719.6,80.67c1.48,16.21,8.38,28.67,20.59,37.15,12.2-8.48,19.11-20.94,20.58-37.15L740.19,67.58Z"/><g id="Badge_03" data-name="Badge 03"><path class="cls-31" d="M768.56,76.8l-28.37-18v0l-28.38,18c0,15.6,4.64,37.15,28.38,49.65C763.93,114,768.56,92.4,768.56,76.8Z"/></g><polyline class="cls-32" points="751.2 85.33 736.73 99.8 729.18 90.31"/><path class="cls-33" d="M720,282.89H423.28a6,6,0,0,1-6-6V135.06a6,6,0,0,1,6-6H720a6,6,0,0,1,6,6V276.89A6,6,0,0,1,720,282.89Z"/><rect class="cls-34" x="471.88" y="149.46" width="52.04" height="52.04" rx="6.28"/><circle class="cls-33" cx="484.22" cy="162.41" r="4.64"/><line class="cls-35" x1="481.89" y1="175.76" x2="516.22" y2="175.76"/><line class="cls-35" x1="481.89" y1="184.48" x2="516.22" y2="184.48"/><line class="cls-35" x1="481.89" y1="193.19" x2="516.22" y2="193.19"/><rect class="cls-34" x="545.65" y="149.46" width="52.04" height="52.04" rx="6.28"/><circle class="cls-33" cx="557.99" cy="162.41" r="4.64"/><line class="cls-35" x1="555.66" y1="175.76" x2="589.98" y2="175.76"/><line class="cls-35" x1="555.66" y1="184.48" x2="589.98" y2="184.48"/><line class="cls-35" x1="555.66" y1="193.19" x2="589.98" y2="193.19"/><rect class="cls-34" x="619.41" y="149.46" width="52.04" height="52.04" rx="6.28"/><circle class="cls-33" cx="631.75" cy="162.41" r="4.64"/><line class="cls-35" x1="629.42" y1="175.76" x2="663.75" y2="175.76"/><line class="cls-35" x1="629.42" y1="184.48" x2="663.75" y2="184.48"/><line class="cls-35" x1="629.42" y1="193.19" x2="663.75" y2="193.19"/><path class="cls-36" d="M646.1,239.68c-20.18,14.89-49.43,22.81-74.62,22.81a135.06,135.06,0,0,1-91.15-34.77c-1.88-1.71-.2-4,2.07-2.71,26,15.1,58.05,24.19,91.2,24.19A181.55,181.55,0,0,0,643.17,235C646.58,233.52,649.44,237.22,646.1,239.68Z"/><path class="cls-36" d="M654.49,230.1c-2.58-3.31-17-1.57-23.56-.79-2,.24-2.27-1.48-.5-2.73,11.55-8.11,30.48-5.77,32.68-3.05s-.59,21.71-11.41,30.76c-1.66,1.39-3.25.65-2.51-1.19C651.63,247,657.08,233.4,654.49,230.1Z"/></g></g></svg>